<svg xmlns="http://www.w3.org/2000/svg" width="16" height="15.604" viewBox="0 0 16 15.604"><path d="M8,.445a8,8,0,0,0-2.53,15.59c.4.075.547-.172.547-.385,0-.19-.007-.693-.01-1.36-2.225.483-2.695-1.073-2.695-1.073a2.12,2.12,0,0,0-.89-1.17c-.725-.5.056-.486.056-.486a1.677,1.677,0,0,1,1.225.824,1.7,1.7,0,0,0,2.33.665,1.706,1.706,0,0,1,.507-1.07c-1.777-.2-3.644-.888-3.644-3.953a3.086,3.086,0,0,1,.823-2.147,2.844,2.844,0,0,1,.07-2.117s.67-.215,2.2.82a7.542,7.542,0,0,1,4,0c1.52-1.035,2.19-.82,2.19-.82a2.923,2.923,0,0,1,.08,2.117,3.1,3.1,0,0,1,.82,2.147c0,3.073-1.87,3.75-3.65,3.947a1.915,1.915,0,0,1,.54,1.48c0,1.071-.01,1.931-.01,2.191,0,.21.14.46.55.38A7.99,7.99,0,0,0,8,.445" transform="translate(0 -0.445)" fill="#212121"/></svg>