<svg xmlns="http://www.w3.org/2000/svg" width="31" height="31" viewBox="0 0 31 31"><path d="M20.963,11.974a8.346,8.346,0,1,0,8.346,8.346,8.356,8.356,0,0,0-8.346-8.346Zm0-2.385A1.192,1.192,0,0,0,22.155,8.4V6.012a1.192,1.192,0,1,0-2.385,0V8.4A1.191,1.191,0,0,0,20.963,9.589Zm0,21.462a1.192,1.192,0,0,0-1.192,1.192v2.385a1.192,1.192,0,1,0,2.385,0V32.243A1.193,1.193,0,0,0,20.963,31.051Zm9.271-18.319,1.686-1.686A1.192,1.192,0,0,0,30.234,9.36l-1.686,1.686a1.192,1.192,0,1,0,1.686,1.686ZM11.688,27.91,10,29.6a1.192,1.192,0,0,0,1.686,1.686L13.374,29.6a1.192,1.192,0,1,0-1.686-1.686Zm-1.456-7.59A1.193,1.193,0,0,0,9.04,19.128H6.655a1.192,1.192,0,1,0,0,2.385H9.04A1.192,1.192,0,0,0,10.232,20.32ZM35.27,19.128H32.886a1.192,1.192,0,1,0,0,2.385H35.27a1.192,1.192,0,1,0,0-2.385Zm-23.584-6.4a1.192,1.192,0,0,0,1.686-1.686L11.687,9.36A1.192,1.192,0,0,0,10,11.046ZM30.237,27.907a1.192,1.192,0,0,0-1.686,1.686l1.686,1.686a1.192,1.192,0,0,0,1.686-1.686Z" transform="translate(-5.463 -4.82)" fill="#212121"/></svg>