<svg viewBox="0 0 31.047 25.289"><g transform="translate(-2.25 -4.5)"><path d="M24.556,31.05a.353.353,0,0,0-.291-.3l-1.545-.132a2.408,2.408,0,0,1-1.545-1.961l-.083-.534H14.715l-.083.527a2.42,2.42,0,0,1-1.545,1.961l-1.545.132a.378.378,0,0,0-.291.3.355.355,0,0,0,.353.4H24.2A.35.35,0,0,0,24.556,31.05Z" transform="translate(-0.129 -1.656)" fill="#424242"/><path d="M32.805,4.985A1.674,1.674,0,0,0,31.627,4.5H3.927a1.662,1.662,0,0,0-1.178.485,1.688,1.688,0,0,0-.5,1.178v18.85a1.675,1.675,0,0,0,.5,1.178,1.642,1.642,0,0,0,1.164.485H31.634a1.63,1.63,0,0,0,1.164-.485,1.688,1.688,0,0,0,.5-1.178V6.163A1.652,1.652,0,0,0,32.805,4.985ZM17.774,25.013a.554.554,0,1,1,.554-.554A.556.556,0,0,1,17.774,25.013ZM31.9,22.241H3.65a.278.278,0,0,1-.277-.277V6.44A.834.834,0,0,1,4.2,5.609H31.35a.834.834,0,0,1,.832.832V21.964A.278.278,0,0,1,31.9,22.241Z" fill="#424242"/></g></svg>