<svg xmlns="http://www.w3.org/2000/svg" width="16" height="11.25" viewBox="0 0 16 11.25"><path d="M16.716,6.26A2.01,2.01,0,0,0,15.3,4.837,47.51,47.51,0,0,0,9.05,4.5,47.511,47.511,0,0,0,2.8,4.837,2.01,2.01,0,0,0,1.384,6.26a21.09,21.09,0,0,0-.334,3.876,21.09,21.09,0,0,0,.334,3.876,1.98,1.98,0,0,0,1.415,1.4,47.51,47.51,0,0,0,6.251.337,47.51,47.51,0,0,0,6.251-.337,1.98,1.98,0,0,0,1.415-1.4,21.09,21.09,0,0,0,.334-3.876A21.09,21.09,0,0,0,16.716,6.26Zm-9.3,6.255V7.757L11.6,10.136,7.414,12.515Z" transform="translate(-1.05 -4.5)"/></svg>